<svg width="101" height="80" viewBox="0 0 101 80" fill="none" xmlns="http://www.w3.org/2000/svg">
<path fill-rule="evenodd" clip-rule="evenodd" d="M39.7687 15.6545C39.7687 15.6545 41.3303 7.84676 49.5986 9.34584C51.0228 9.60404 52.3946 9.9176 53.7326 10.2234C60.163 11.6933 65.8138 12.9849 72.7485 7.09721C72.7485 7.09721 70.9762 14.0227 61.8802 15.3578C58.0031 15.9269 55.0197 15.3626 52.188 14.8269C48.3764 14.106 44.8398 13.437 39.7687 15.6545ZM29.3454 0H74.0524V44.707H29.3454V35.1504C30.0368 35.2751 30.7297 35.4064 31.4276 35.5386C36.4522 36.4904 41.7408 37.4923 48.6305 36.4777C64.7847 34.1353 67.9312 21.7992 67.9312 21.7992C55.6572 32.2269 45.6589 29.9531 34.2807 27.3654L34.2806 27.3654C32.6668 26.9984 31.0252 26.6251 29.3454 26.2808V23.431C33.9201 22.5477 37.6944 23.2631 41.6738 24.0175C45.7494 24.7901 50.0402 25.6034 55.6262 24.7817C68.7354 22.8532 71.2885 12.8671 71.2885 12.8671C61.3348 21.3271 53.2181 19.482 43.9876 17.3838C42.0243 16.9375 40.0107 16.4798 37.9183 16.1073C34.194 15.4437 31.4067 16.1073 29.3298 17.2785L29.3454 0ZM6.02378 69.7073H7.7493C8.34708 69.7018 8.94376 69.7594 9.52946 69.8791C10.0402 69.9846 10.5306 70.1718 10.9817 70.4334C11.4012 70.6751 11.7466 71.0269 11.9805 71.4508C12.2145 71.8747 12.3281 72.3544 12.309 72.8382C12.3243 73.3624 12.2032 73.8817 11.9577 74.3451C11.73 74.7577 11.4025 75.1067 11.0051 75.3601C10.582 75.6236 10.1174 75.8137 9.63094 75.9223C9.09081 76.0469 8.53783 76.1072 7.98353 76.1018H6.86703C6.58521 76.0979 6.30376 76.0796 6.02378 76.0472V69.7073ZM6.02378 60.8534C6.12784 60.8534 6.25598 60.8341 6.40552 60.8116L6.40556 60.8116C6.5253 60.7936 6.65875 60.7736 6.80455 60.7597C7.0139 60.7397 7.27416 60.7452 7.58534 60.7518C7.7616 60.7556 7.95419 60.7597 8.16311 60.7597C9.09506 60.7039 10.0217 60.9356 10.8177 61.4233C11.1243 61.6411 11.3709 61.9327 11.5347 62.2712C11.6985 62.6097 11.7741 62.9841 11.7546 63.3596C11.7637 63.881 11.6019 64.391 11.294 64.8119C10.937 65.2584 10.4605 65.5942 9.91985 65.78C9.19293 66.0229 8.42967 66.1391 7.66341 66.1236H6.00036L6.02378 60.8534ZM1.26107 79.5919C1.80761 79.67 2.37759 79.7168 3.22863 79.7793C4.07967 79.8417 5.2352 79.8808 6.48443 79.8886C7.78973 79.8975 9.0941 79.8167 10.3883 79.6465C11.3755 79.5211 12.3466 79.2908 13.285 78.9595C14.0125 78.7007 14.6949 78.3292 15.3072 77.8586C15.772 77.4864 16.1844 77.0531 16.533 76.5703C16.8736 76.0799 17.137 75.5401 17.3138 74.9697C17.5131 74.3546 17.6106 73.7112 17.6026 73.0646C17.616 72.1813 17.4151 71.308 17.0171 70.5193C16.649 69.7842 16.1143 69.1452 15.4555 68.6533C14.7674 68.147 13.988 67.7785 13.16 67.568V67.5055C13.9219 67.2234 14.6277 66.8084 15.2447 66.2797C15.7632 65.8234 16.1785 65.2618 16.4627 64.6323C16.7212 64.036 16.8541 63.3928 16.8531 62.7428C16.8642 62.0991 16.7475 61.4595 16.5096 60.8612C16.2989 60.3111 15.9834 59.8073 15.5804 59.3777C15.1829 58.9452 14.7125 58.5858 14.1907 58.3158C13.6338 57.9846 13.0386 57.7224 12.4183 57.5351C11.7166 57.3358 10.9977 57.2025 10.2712 57.1369C9.49041 57.0588 8.56129 57.0276 7.53848 57.0276H7.538C6.67151 57.0276 5.82845 57.0276 4.99318 57.09C4.70834 57.1113 4.4362 57.1308 4.17213 57.1497C3.6617 57.1863 3.1814 57.2206 2.69771 57.2618C2.12928 57.3102 1.81845 57.3586 1.50766 57.4069L1.5076 57.407L1.50748 57.407C1.41705 57.4211 1.32663 57.4351 1.22986 57.4492C1.15954 57.4604 1.09559 57.4966 1.04972 57.5511C1.00385 57.6055 0.979111 57.6747 0.980004 57.7459V79.2796C0.983351 79.3504 1.01196 79.4177 1.06066 79.4693C1.10936 79.5209 1.17492 79.5533 1.24546 79.5606L1.26107 79.5919ZM28.674 74.1499C28.6818 74.0016 28.6818 73.8531 28.674 73.7048L28.6974 71.9637C27.8894 71.9472 27.0823 72.0258 26.2926 72.198C25.6721 72.3072 25.0909 72.5763 24.6062 72.9787C24.3977 73.1723 24.2334 73.4085 24.1242 73.6712C24.0151 73.9339 23.9638 74.217 23.9737 74.5013C23.9608 74.878 24.0527 75.251 24.2392 75.5787C24.4074 75.8597 24.6545 76.085 24.9497 76.2267C25.2719 76.3685 25.6205 76.4403 25.9725 76.4375C26.369 76.4336 26.7601 76.3458 27.1202 76.1799C27.4689 76.0229 27.7822 75.7972 28.0416 75.5162C28.2886 75.2422 28.4772 74.9208 28.5959 74.5715C28.6348 74.4337 28.6609 74.2925 28.674 74.1499ZM33.2181 67.2791C33.4655 68.1685 33.5838 69.0888 33.5694 70.0118L33.6475 75.6568C33.6475 75.8306 33.6448 76.0009 33.6422 76.1691C33.637 76.4996 33.632 76.8221 33.6475 77.148C33.6709 77.6399 33.6943 78.0928 33.7334 78.5066C33.7661 78.8683 33.8182 79.228 33.8895 79.5841H29.3298C29.2497 79.5821 29.1734 79.5494 29.1167 79.4927C29.06 79.436 29.0273 79.3597 29.0253 79.2796V77.9522H28.9316C28.3929 78.602 27.7043 79.1112 26.9251 79.4357C26.0848 79.7874 25.1812 79.9628 24.2704 79.951C23.5109 79.9558 22.7578 79.8126 22.053 79.5294C21.431 79.2818 20.8692 78.9038 20.4056 78.4207C19.9594 77.9742 19.6064 77.4434 19.3672 76.8592C19.1299 76.2629 19.008 75.627 19.008 74.9853C18.9829 74.0406 19.2133 73.1066 19.6751 72.282C20.1369 71.4574 20.8128 70.7729 21.6314 70.3007C22.5641 69.7566 23.5795 69.3689 24.6374 69.153C25.9221 68.893 27.2305 68.7673 28.5412 68.7782V68.5752C28.5453 68.3339 28.5083 68.0936 28.4319 67.8647C28.3445 67.6034 28.1944 67.3675 27.9947 67.1776C27.7396 66.9325 27.4288 66.753 27.089 66.6545C26.6007 66.5065 26.0923 66.4354 25.5821 66.4437C25.0204 66.4451 24.4604 66.5053 23.9113 66.6233C23.3796 66.7256 22.8572 66.8718 22.3497 67.0605C22.0223 67.1805 21.7039 67.324 21.3972 67.4899C21.3572 67.51 21.3133 67.5211 21.2686 67.5223C21.2239 67.5235 21.1795 67.5149 21.1385 67.497C21.0975 67.4791 21.0609 67.4524 21.0314 67.4188C21.0019 67.3852 20.9802 67.3455 20.9678 67.3025L20.187 64.6479C20.1687 64.582 20.1726 64.512 20.198 64.4485C20.2234 64.3851 20.2689 64.3317 20.3275 64.2966C20.7421 64.0891 21.1698 63.9091 21.608 63.7578C22.3017 63.5098 23.0146 63.3192 23.7395 63.1879C24.6337 63.0285 25.5405 62.9501 26.4488 62.9536C27.606 62.928 28.7579 63.1186 29.8451 63.5158C30.6931 63.8307 31.4496 64.3512 32.0469 65.0305C32.5927 65.6882 32.992 66.4548 33.2181 67.2791ZM36.5598 79.6309H40.9945C41.074 79.631 41.1503 79.5999 41.2072 79.5445C41.264 79.4891 41.297 79.4136 41.2991 79.3342V70.246C41.2869 70.0172 41.2869 69.7878 41.2991 69.559C41.3148 69.3609 41.3595 69.1663 41.4318 68.9812C41.5586 68.6542 41.735 68.3487 41.9549 68.0755C42.189 67.7819 42.4814 67.5399 42.8137 67.365C43.1902 67.1709 43.6083 67.0718 44.0318 67.0761C44.5607 67.056 45.0808 67.2156 45.5074 67.529C45.8991 67.8494 46.1871 68.2786 46.335 68.7626C46.5173 69.3594 46.6042 69.9813 46.5927 70.6052V79.3342C46.5947 79.4123 46.6265 79.4866 46.6818 79.5418C46.737 79.5971 46.8113 79.629 46.8894 79.6309H51.3476C51.427 79.631 51.5033 79.5999 51.5602 79.5445C51.6171 79.4891 51.65 79.4136 51.6521 79.3342V70.0118C51.6693 68.9538 51.5191 67.8998 51.207 66.8887C50.96 66.0822 50.5449 65.3371 49.989 64.7026C49.4811 64.1328 48.8476 63.6891 48.1386 63.4065C47.3926 63.1154 46.597 62.9722 45.7963 62.9849C45.173 62.9834 44.5527 63.0701 43.9537 63.2425C43.4447 63.3947 42.9588 63.6153 42.5093 63.8984C42.1223 64.1412 41.7658 64.4296 41.4474 64.7572C41.1889 65.0166 40.9609 65.3047 40.7681 65.6161H40.6666V63.6641C40.6677 63.6235 40.6606 63.5831 40.6457 63.5452C40.6309 63.5074 40.6086 63.4729 40.5802 63.4438C40.5519 63.4147 40.5179 63.3915 40.4805 63.3757C40.443 63.36 40.4028 63.3518 40.3621 63.3518H36.0445L36.1381 64.7885C36.1823 65.4819 36.1806 66.0023 36.1783 66.7072C36.1778 66.8753 36.1772 67.0539 36.1772 67.2479V79.3264C36.1761 79.3667 36.1832 79.4068 36.1982 79.4442C36.2131 79.4816 36.2355 79.5156 36.264 79.5441C36.2925 79.5726 36.3265 79.595 36.3639 79.6099C36.4013 79.6249 36.4414 79.632 36.4817 79.6309H36.5598ZM58.5151 68.5674C58.3934 68.9161 58.3122 69.2776 58.273 69.6449L64.2615 69.6761C64.2649 69.3269 64.2283 68.9785 64.1522 68.6377C64.0644 68.2601 63.9168 67.899 63.715 67.568C63.4992 67.2028 63.196 66.8969 62.8327 66.6779C62.3978 66.4595 61.9179 66.3458 61.4312 66.3458C60.9446 66.3458 60.4647 66.4595 60.0298 66.6779C59.6613 66.8794 59.3415 67.1593 59.0928 67.4977C58.8463 67.8224 58.6514 68.1832 58.5151 68.5674ZM68.8712 72.5455C68.8531 72.6581 68.8369 72.7588 68.8369 72.846L68.7978 72.8382C68.7868 72.9093 68.7509 72.9741 68.6966 73.0213C68.6423 73.0685 68.5731 73.0949 68.5012 73.0959H58.273C58.2942 73.5846 58.4452 74.0589 58.7103 74.47C58.9702 74.8639 59.3176 75.1926 59.7253 75.4304C60.1721 75.6945 60.6565 75.8894 61.1619 76.0081C61.7203 76.1351 62.2913 76.1979 62.864 76.1955C63.6611 76.2015 64.4573 76.144 65.2453 76.0238C65.8505 75.9256 66.448 75.7847 67.0333 75.6021C67.0743 75.5879 67.1179 75.5828 67.1611 75.5873C67.2043 75.5918 67.246 75.6057 67.2832 75.628C67.3204 75.6504 67.3523 75.6806 67.3766 75.7166C67.4009 75.7526 67.4169 75.7935 67.4237 75.8364C67.6033 76.7811 67.7906 77.7337 67.978 78.6784C67.9886 78.7492 67.9751 78.8216 67.9398 78.8839C67.9044 78.9461 67.8491 78.9948 67.7828 79.0219C66.9729 79.3337 66.1331 79.5613 65.2766 79.7012C64.2442 79.8716 63.1998 79.9577 62.1535 79.9588C60.5331 79.9918 58.928 79.6414 57.4688 78.936C56.2149 78.3093 55.1844 77.3115 54.5175 76.0784C53.8084 74.718 53.4539 73.2008 53.4869 71.6671C53.4902 70.8273 53.5951 69.991 53.7992 69.1764C54.0105 68.3565 54.3309 67.5687 54.7518 66.8341C55.1815 66.089 55.7301 65.4192 56.3758 64.8509C57.0539 64.2608 57.8346 63.8004 58.679 63.4924C59.6518 63.1488 60.6768 62.9771 61.7084 62.9849C62.6549 62.9722 63.5962 63.1282 64.488 63.4455C65.2455 63.7194 65.9409 64.1414 66.5336 64.687C67.1041 65.2053 67.5774 65.8214 67.9312 66.5062C68.2847 67.2063 68.5471 67.9489 68.712 68.7157C68.8773 69.5014 68.9611 70.302 68.9618 71.1049C68.9618 71.3152 68.9471 71.5319 68.933 71.7406C68.9198 71.9349 68.9071 72.1223 68.9071 72.2917C68.8975 72.3818 68.8839 72.4666 68.8712 72.5455ZM70.9137 78.936C71.5802 79.2531 72.2792 79.4966 72.9984 79.6621C73.9738 79.8875 74.972 80.0001 75.9731 79.9979C77.3074 80.0252 78.634 79.789 79.877 79.303C80.8243 78.9249 81.6391 78.2758 82.2193 77.437C82.6739 76.7186 82.9414 75.8978 82.9973 75.0495C83.0532 74.2012 82.8958 73.3524 82.5394 72.5806C82.2048 71.9255 81.7207 71.3584 81.1262 70.9253C80.3544 70.3872 79.5072 69.9662 78.6121 69.6761C78.0805 69.4969 77.5592 69.2884 77.0506 69.0514C76.7552 68.9114 76.49 68.7152 76.2698 68.4737C76.1079 68.2793 76.0243 68.0315 76.0356 67.7788C76.0303 67.5916 76.0735 67.4062 76.1611 67.2406C76.2486 67.0751 76.3775 66.935 76.5353 66.8341C76.966 66.5775 77.4635 66.4552 77.9641 66.4827C78.4206 66.4888 78.8755 66.5384 79.3226 66.6311C79.7411 66.7243 80.1532 66.8442 80.5563 66.9902L81.1574 67.2401C81.1982 67.2616 81.2434 67.2734 81.2895 67.2744C81.3356 67.2754 81.3813 67.2657 81.423 67.246C81.4646 67.2263 81.5012 67.1972 81.5296 67.1609C81.5581 67.1246 81.5777 67.0822 81.5869 67.0371L82.3286 64.0311C82.3355 63.997 82.3307 63.9616 82.3152 63.9304C82.2996 63.8993 82.2741 63.8743 82.2427 63.8593C81.6561 63.5926 81.044 63.3859 80.4157 63.2425C79.5575 63.0483 78.6801 62.9514 77.8001 62.9536C76.8712 62.9477 75.9469 63.0847 75.0596 63.3596C74.2998 63.5989 73.5923 63.9804 72.975 64.4839C72.4112 64.9421 71.9576 65.5211 71.6477 66.1782C71.3342 66.8451 71.1715 67.5729 71.1714 68.3097C71.1585 68.961 71.3088 69.6052 71.6086 70.1836C71.9737 70.8502 72.4865 71.4244 73.1077 71.8622C73.941 72.4483 74.8602 72.9013 75.8326 73.2052C76.33 73.3585 76.8133 73.5544 77.277 73.7907C77.5625 73.9179 77.81 74.1169 77.9953 74.3685C78.1359 74.5869 78.2066 74.8429 78.1983 75.1024C78.2067 75.2953 78.1643 75.487 78.0752 75.6583C77.9861 75.8296 77.8536 75.9745 77.6908 76.0784C77.1836 76.3506 76.6101 76.4751 76.0356 76.4375C75.5103 76.4249 74.9874 76.3621 74.474 76.2502C73.9443 76.1329 73.4227 75.9817 72.9125 75.7973C72.6079 75.6956 72.3127 75.5676 72.0302 75.4147C71.9901 75.3961 71.9464 75.3865 71.9022 75.3865C71.858 75.3865 71.8143 75.3961 71.7742 75.4147C71.7341 75.4332 71.6985 75.4603 71.6699 75.494C71.6413 75.5278 71.6204 75.5673 71.6086 75.6099L70.8278 78.5925C70.8146 78.658 70.8217 78.7261 70.8482 78.7875C70.8747 78.8489 70.9194 78.9007 70.9762 78.936H70.9137ZM89.9021 68.5674C89.7707 68.9137 89.6867 69.2761 89.6523 69.6449L95.6486 69.637C95.6452 69.2878 95.606 68.9398 95.5315 68.5986C95.4436 68.2211 95.296 67.86 95.0942 67.529C94.8734 67.178 94.5706 66.886 94.212 66.6779C93.7771 66.4595 93.2971 66.3458 92.8105 66.3458C92.3238 66.3458 91.8439 66.4595 91.409 66.6779C91.039 66.8773 90.7188 67.1575 90.4721 67.4977C90.2249 67.8208 90.0324 68.1821 89.9021 68.5674ZM100.25 72.5455C100.232 72.6581 100.216 72.7588 100.216 72.846L100.146 72.8382C100.135 72.9093 100.099 72.9741 100.045 73.0213C99.9903 73.0685 99.9211 73.0949 99.8491 73.0959H89.6132C89.6407 73.5846 89.794 74.0579 90.0583 74.47C90.3182 74.8639 90.6656 75.1926 91.0733 75.4304C91.5201 75.6945 92.0045 75.8894 92.5099 76.0081C93.0683 76.1351 93.6393 76.1979 94.212 76.1955C95.009 76.2015 95.8053 76.144 96.5933 76.0238C97.1983 75.9247 97.7957 75.7838 98.3813 75.6021C98.4223 75.5879 98.4659 75.5828 98.5091 75.5873C98.5523 75.5918 98.594 75.6057 98.6312 75.628C98.6685 75.6504 98.7003 75.6806 98.7246 75.7166C98.7488 75.7526 98.7649 75.7935 98.7717 75.8364C98.8654 76.3087 98.9571 76.7831 99.0488 77.2574C99.1406 77.7317 99.2323 78.206 99.326 78.6784C99.3381 78.7494 99.3252 78.8223 99.2896 78.8849C99.2541 78.9475 99.198 78.9959 99.1308 79.0219C98.3209 79.3337 97.481 79.5613 96.6245 79.7012C95.5922 79.8716 94.5477 79.9577 93.5015 79.9588C91.8811 79.9918 90.2759 79.6414 88.8168 78.936C87.5629 78.3093 86.5324 77.3115 85.8655 76.0784C85.1564 74.718 84.8019 73.2008 84.8349 71.6671C84.8382 70.8273 84.9431 69.991 85.1472 69.1764C85.3551 68.3554 85.6756 67.5671 86.0997 66.8341C86.5295 66.089 87.0781 65.4192 87.7237 64.8509C88.4129 64.2558 89.2073 63.795 90.0661 63.4924C91.0359 63.148 92.0585 62.9762 93.0876 62.9849C94.0342 62.9722 94.9754 63.1282 95.8672 63.4455C96.6247 63.7194 97.3201 64.1414 97.9128 64.687C98.4833 65.2053 98.9566 65.8214 99.3104 66.5062C99.664 67.2063 99.9264 67.9489 100.091 68.7157C100.257 69.5014 100.34 70.302 100.341 71.1049C100.341 71.3152 100.326 71.5319 100.312 71.7406C100.299 71.9349 100.286 72.1223 100.286 72.2917C100.277 72.3818 100.263 72.4666 100.25 72.5455Z" fill="white"/>
</svg>
